<svg aria-hidden="true" style="position:absolute;width:0;height:0;overflow:hidden" xmlns="http://www.w3.org/2000/svg"><defs><symbol id="icon-Client-1" viewBox="0 0 59 32"><path fill="#afb1b8" style="fill:var(--color1, #afb1b8)" d="m24.348 8 2.438 2.307-4.525-.003V21.5h11.826v-4.281l2.435 2.305V7.999H24.348zm9.632 8.949-6.911-6.543h6.911v6.543zm-2.146 2.914h-7.702v-7.529h.544v7.019h7.158v.51zm-5.883 3.128-.285.586-.285-.586h-.239l.415.781v.455h.216v-.455l.415-.781h-.238zm.358 1.237.1-.288h.479l.101.288h.224l-.468-1.237h-.193l-.467 1.237h.223zm.339-.974.179.513h-.358l.179-.513zm1.133.483a.28.28 0 0 0-.047.155v.002c0 .104.037.189.11.254s.171.097.294.097a.513.513 0 0 0 .316-.099l.07.082h.239l-.182-.215a.618.618 0 0 0 .107-.374h-.179a.494.494 0 0 1-.051.226l-.239-.282.084-.061a.48.48 0 0 0 .127-.127l.001-.002a.276.276 0 0 0 .039-.141v-.007a.254.254 0 0 0-.086-.191.309.309 0 0 0-.209-.08h-.013.001c-.099 0-.179.029-.238.085s-.088.133-.088.23c0 .04.009.081.028.123a.777.777 0 0 0 .101.154.745.745 0 0 0-.184.17zm.558.273a.316.316 0 0 1-.195.07h-.01a.185.185 0 0 1-.193-.186v-.007c0-.066.034-.125.102-.177l.026-.019.27.319zm-.221-.547c-.058-.072-.088-.131-.088-.179 0-.041.012-.075.036-.103a.122.122 0 0 1 .091-.041H28.166c.034 0 .065.013.088.035a.11.11 0 0 1 .037.082v.004c0 .046-.02.087-.052.115l-.026.022-.094.064zm2.012.671a.445.445 0 0 0 .146-.309h-.214c-.011.088-.038.151-.081.189s-.106.057-.19.057a.242.242 0 0 1-.211-.105.55.55 0 0 1-.071-.306v-.109c.001-.132.027-.232.077-.3s.122-.103.216-.103c.08 0 .141.02.183.059s.068.103.078.192h.214c-.014-.135-.062-.24-.145-.314s-.193-.111-.329-.111a.47.47 0 0 0-.444.274l-.001.003a.723.723 0 0 0-.062.294v.015-.001.115c.002.114.023.214.064.3s.099.152.173.199a.48.48 0 0 0 .261.07.503.503 0 0 0 .339-.11zm1.263-.173a.757.757 0 0 0 .063-.319v-.082a.753.753 0 0 0-.066-.308l.002.005a.478.478 0 0 0-.179-.208l-.002-.001c-.078-.049-.167-.073-.268-.073s-.19.024-.268.074a.482.482 0 0 0-.181.211.751.751 0 0 0-.064.304v.016-.001.07c.001.118.022.223.064.313s.104.161.182.21a.497.497 0 0 0 .268.073c.102 0 .191-.024.269-.073s.138-.12.18-.211zm-.23-.699a.539.539 0 0 1 .078.315v.064c0 .139-.026.245-.077.318s-.124.109-.219.109h-.009a.256.256 0 0 1-.211-.111l-.001-.001a.535.535 0 0 1-.079-.315v-.071a.528.528 0 0 1 .08-.308.255.255 0 0 1 .209-.11h.01c.095 0 .168.037.22.11z"/></symbol><symbol id="icon-Client-2" viewBox="0 0 59 32"><path fill="#afb1b8" style="fill:var(--color1, #afb1b8)" d="M28.561 7.629h-.048a9.542 9.542 0 0 0-.214-.008h-.163c-.138 0-.279.003-.419.01l-.016-.001-.017.001h.001a9.786 9.786 0 0 0-3.716.959l.059-.026-.151.072v7.702l.352-.12c.309-.106.638-.202.978-.29.841-.225 1.81-.361 2.808-.374h.008v1.012a8.944 8.944 0 0 0-.37.01h-.029c-.791.044-1.531.163-2.245.35l.078-.017c-.98.249-1.839.594-2.638 1.035l.057-.029V8.038c.78-.463 1.681-.841 2.636-1.086l.072-.016a10.114 10.114 0 0 1 2.55-.329h.151c.178.005.351.013.514.025.429.03.854.098 1.271.202v.996a7.441 7.441 0 0 0-1.206-.184l-.026-.002-.025-.002a3.005 3.005 0 0 0-.249-.015h-.003zm1.753 1.018c.221.017.449.025.681.025a10.987 10.987 0 0 0 2.759-.361l-.076.017a11.03 11.03 0 0 0 2.637-1.035l-.057.029v9.701c-.78.463-1.681.841-2.636 1.086l-.072.016c-.765.205-1.644.325-2.55.328h-.065a7.796 7.796 0 0 1-1.927-.24l.054.012V8.461a8.131 8.131 0 0 0 1.252.188zm4.937.075-.352.119c-.323.109-.65.206-.978.293-.876.235-1.883.371-2.922.375h-.002c-.23 0-.441-.006-.645-.019l-.281-.018v7.922l.241.021c.223.02.454.03.686.03a9.368 9.368 0 0 0 2.368-.313l-.065.015a9.607 9.607 0 0 0 1.857-.672l-.057.025.151-.072V8.724zM23.561 21.291a.516.516 0 0 0-.373-.159h-.019.001-.008a.582.582 0 0 0-.222.044l.004-.001a.512.512 0 0 0-.288.289l-.001.003a.565.565 0 0 0-.04.218v1.32a.633.633 0 0 0 .052.271.523.523 0 0 0 .132.177.462.462 0 0 0 .181.094.731.731 0 0 0 .197.027.558.558 0 0 0 .547-.556v-.148h-.345v.126a.301.301 0 0 1-.021.112l.001-.002a.215.215 0 0 1-.05.074.235.235 0 0 1-.144.05l-.02.001a.173.173 0 0 1-.141-.072.31.31 0 0 1-.046-.163v-.014.001-1.231a.432.432 0 0 1 .042-.197.176.176 0 0 1 .169-.08h-.001.007c.06 0 .114.029.147.074a.278.278 0 0 1 .057.17v.122h.342V21.7a.602.602 0 0 0-.044-.229l.001.004a.538.538 0 0 0-.116-.186zm2.049-.014a.605.605 0 0 0-.598-.108.547.547 0 0 0-.315.289l-.001.003a.606.606 0 0 0-.05.256v1.265a.623.623 0 0 0 .05.259.516.516 0 0 0 .134.177.534.534 0 0 0 .182.111.594.594 0 0 0 .599-.112l-.001.001a.542.542 0 0 0 .18-.436v-1.278a.597.597 0 0 0-.052-.247l.002.004a.572.572 0 0 0-.13-.185zm-.161 1.705a.232.232 0 0 1-.068.183.252.252 0 0 1-.325 0 .224.224 0 0 1-.069-.163l.001-.021v.001-1.266l-.001-.02c0-.064.027-.122.069-.163a.252.252 0 0 1 .325 0 .224.224 0 0 1 .069.163l-.001.021v-.001 1.266zm2.853.566v-2.397h-.331l-.436 1.269h-.006l-.439-1.268h-.328v2.396h.342v-1.457h.006l.335 1.03h.171l.338-1.03h.006v1.457h.342zm1.944-2.228a.481.481 0 0 0-.193-.131.733.733 0 0 0-.235-.037h-.522v2.397h.341v-.936h.176a.629.629 0 0 0 .308-.065.497.497 0 0 0 .186-.181l.001-.002a.582.582 0 0 0 .078-.209c.012-.075.019-.162.019-.251v-.023.001a1.403 1.403 0 0 0-.033-.342.513.513 0 0 0-.126-.22zm-.176.73a.318.318 0 0 1-.032.127l.001-.002a.189.189 0 0 1-.087.083h-.001a.349.349 0 0 1-.143.031h-.019.001-.156v-.815h.192a.33.33 0 0 1 .14.031l-.002-.001a.19.19 0 0 1 .079.087v.001a.344.344 0 0 1 .03.134v.159c0 .056.003.113 0 .165h-.003zm1.794-.899h-.28l-.528 2.397h.342l.1-.515h.465l.101.515h.341l-.541-2.397zm-.315 1.555.168-.869h.006l.167.869h-.341zm2.521-.111h-.006l-.515-1.443h-.328v2.397h.341v-1.441h.007l.522 1.441h.321v-2.396h-.341v1.443zm2.086-1.444-.275.953h-.007l-.274-.953h-.362l.469 1.384v1.013h.342v-1.013l.469-1.383h-.361zm-13.547 3.073h.165v.462h.112v-.462h.163v-.095h-.44v.095zm1.383-.095-.216.557h.119l.046-.127h.222l.047.127h.122l-.221-.557h-.119zm-.017.337.075-.206.075.206h-.151zm1.384.015h.129v.072a.21.21 0 0 1-.132.047h-.008a.14.14 0 0 1-.11-.053.23.23 0 0 1-.041-.133v-.013.001c0-.124.054-.186.16-.186l.012-.001c.055 0 .101.038.114.088v.001l.11-.021c-.024-.109-.102-.163-.236-.163h-.008a.278.278 0 0 0-.187.072.27.27 0 0 0-.08.215v-.001.013a.3.3 0 0 0 .072.196.268.268 0 0 0 .194.082l.018-.001h-.001.009a.336.336 0 0 0 .227-.089v-.219h-.241v.094zm1.397-.352h-.113v.557h.39v-.095h-.277v-.462zm1.18 0h-.112v.557h.112v-.557zm1.155.372-.228-.371h-.109v.557h.104v-.363l.224.363h.112v-.557h-.103v.372zm1.044-.06h.277v-.095h-.277v-.122h.298v-.095h-.411v.557h.422v-.095h-.31v-.151zm2.53-.092h-.219v-.219h-.111v.556h.111v-.243h.219v.243h.112v-.557h-.112v.219zm1.05.092h.278v-.095h-.278v-.122h.299v-.095h-.41v.557h.422v-.095h-.31v-.151zm1.423 0c.097-.015.146-.066.146-.155l.001-.016a.133.133 0 0 0-.055-.107.312.312 0 0 0-.141-.033l-.023.001h.001-.236v.556h.112v-.233h.031a.16.16 0 0 1 .062.013h-.001a.12.12 0 0 1 .04.041l.121.177h.134l-.068-.109a.4.4 0 0 0-.122-.133l-.001-.001zm-.112-.077h-.082v-.139h.088l.024-.001c.032 0 .063.005.092.015l-.002-.001a.074.074 0 0 1 .024.055.077.077 0 0 1-.008.034.061.061 0 0 1-.021.024.307.307 0 0 1-.093.014l-.022-.001h.001zm1.186.077h.277v-.095h-.277v-.122h.299v-.095h-.412v.557h.422v-.095h-.31v-.151z"/></symbol><symbol id="icon-Client-3" viewBox="0 0 59 32"><path fill="#afb1b8" style="fill:var(--color1, #afb1b8)" d="M23.793 22.644c.006 0 .011.001.016.003l.014.008.076.072a.621.621 0 0 1-.214.138.823.823 0 0 1-.283.05h-.021.001a.802.802 0 0 1-.284-.046.592.592 0 0 1-.352-.327l-.001-.004a.653.653 0 0 1-.049-.251V22.266c0-.177.077-.336.199-.446h.001a.692.692 0 0 1 .227-.131.907.907 0 0 1 .293-.046h.018c.091 0 .178.015.259.044l-.006-.002a.748.748 0 0 1 .204.117l-.064.077a.07.07 0 0 1-.016.014.04.04 0 0 1-.022.006h-.003a.054.054 0 0 1-.028-.008l-.034-.021-.048-.026a.554.554 0 0 0-.146-.046h-.003a.69.69 0 0 0-.105-.008h-.016a.623.623 0 0 0-.208.036l.004-.001a.454.454 0 0 0-.273.253.507.507 0 0 0-.039.198v.015c0 .072.014.141.04.204l-.001-.004a.454.454 0 0 0 .105.154.422.422 0 0 0 .158.096.559.559 0 0 0 .195.033.892.892 0 0 0 .116-.007.457.457 0 0 0 .251-.107l-.001.001a.057.057 0 0 1 .036-.013zm2.191-.364v.008a.63.63 0 0 1-.053.253l.002-.004a.552.552 0 0 1-.142.198h-.001a.665.665 0 0 1-.22.129l-.005.001a.91.91 0 0 1-.583-.002l.006.002a.66.66 0 0 1-.223-.131l.001.001a.58.58 0 0 1-.143-.197l-.001-.004a.665.665 0 0 1 .002-.518l-.002.004a.59.59 0 0 1 .144-.202.652.652 0 0 1 .223-.126.904.904 0 0 1 .583.002l-.006-.002c.084.03.16.074.224.131s.111.125.143.199c.035.083.053.17.051.258zm-.199 0v-.011a.53.53 0 0 0-.038-.199l.001.004a.424.424 0 0 0-.259-.25l-.003-.001a.67.67 0 0 0-.424.001l.005-.001a.425.425 0 0 0-.263.249l-.001.003a.59.59 0 0 0 .002.416l-.001-.004c.046.119.141.21.26.25l.003.001a.682.682 0 0 0 .419 0 .447.447 0 0 0 .16-.096.432.432 0 0 0 .102-.154.54.54 0 0 0 .036-.206zm1.694.216.02.046.022-.046a.342.342 0 0 1 .026-.047l-.001.002.485-.766c.01-.013.018-.022.028-.024s.021-.004.033-.004h.15v1.245h-.17v-.954l-.001-.022.001-.023v.001l-.488.776a.069.069 0 0 1-.028.028.08.08 0 0 1-.041.01h-.029a.081.081 0 0 1-.041-.011.069.069 0 0 1-.028-.028l-.502-.781v.999h-.164v-1.242h.15c.012 0 .023.002.034.005h-.001a.051.051 0 0 1 .026.024l.495.766a.252.252 0 0 1 .024.043l.001.002zm1.823-.062v.466h-.189v-1.243h.423a.934.934 0 0 1 .236.027.474.474 0 0 1 .167.078c.04.032.073.073.094.12l.001.002a.368.368 0 0 1 .032.159v.008a.345.345 0 0 1-.137.275l-.001.001a.496.496 0 0 1-.168.082.795.795 0 0 1-.213.029h-.016l-.229-.003zm0-.134h.23a.52.52 0 0 0 .147-.019.317.317 0 0 0 .107-.054l-.001.001a.239.239 0 0 0 .087-.184v-.016a.204.204 0 0 0-.02-.089l.001.001a.241.241 0 0 0-.066-.085.399.399 0 0 0-.225-.068l-.031.001h.001-.23v.512zm2.549.602h-.153a.067.067 0 0 1-.039-.012.075.075 0 0 1-.025-.028l-.129-.301h-.648l-.134.301a.071.071 0 0 1-.064.04h-.152l.569-1.245h.197l.577 1.245zm-.939-.463h.535l-.225-.507a.963.963 0 0 1-.043-.117l-.022.065a.586.586 0 0 1-.021.053l-.224.506zm1.759-.776a.076.076 0 0 1 .028.022l.83.939v-.967h.17v1.245h-.097a.09.09 0 0 1-.037-.008h.001a.12.12 0 0 1-.031-.023l-.829-.938.001.021-.001.022v-.001.925h-.17v-1.245h.101c.011 0 .023.002.034.006zm2.426.744v.494h-.19v-.494l-.525-.75H34.556c.014 0 .026.004.037.011.01.008.019.018.026.028l.328.484c.013.021.025.04.034.058s.017.035.024.053l.024-.054a.545.545 0 0 1 .032-.057l.323-.487a.12.12 0 0 1 .024-.026.059.059 0 0 1 .037-.012H35.62l-.525.753zm-7.712-2.84c.083.009.166.016.25.023 1.28-.497 2.362-1.311 3.112-2.34s1.134-2.227 1.105-3.445l-1.41-1.225c.287 1.296.152 2.637-.387 3.871s-1.464 2.313-2.67 3.117z"/><path fill="#afb1b8" style="fill:var(--color1, #afb1b8)" d="m26.881 19.51.038.007c1.288-.801 2.271-1.919 2.819-3.21s.64-2.695.261-4.031l-2.009-1.745c.812 1.434 1.139 3.04.943 4.63s-.908 3.098-2.052 4.35zm6.812-4.266c-.341 1.338-1.17 2.544-2.363 3.441a7.363 7.363 0 0 1-1.081.68l-.042.02c.972-.248 1.865-.687 2.61-1.282s1.324-1.332 1.69-2.152l-.815-.707z"/><path fill="#afb1b8" style="fill:var(--color1, #afb1b8)" d="m33.374 15.047-1.16-1.008c-.022 1.149-.398 2.272-1.089 3.251s-1.671 1.782-2.838 2.321h.006c.26 0 .52-.014.778-.04 1.091-.387 2.055-1.003 2.806-1.792s1.265-1.728 1.497-2.732zm-6.325-5.252-1.384-1.203c-1.237.415-2.301 1.145-3.052 2.095s-1.155 2.074-1.159 3.226c.005 1.273.498 2.509 1.402 3.511s2.166 1.714 3.587 2.022c1.269-1.343 2.012-3.003 2.121-4.738s-.422-3.456-1.515-4.911zm9.521 5.067c-.005-1.51-.698-2.958-1.927-4.026s-2.895-1.67-4.634-1.674h-.015c-.835 0-1.638.139-2.386.395l.052-.015 8.471 7.361a4.92 4.92 0 0 0 .438-2.04z"/></symbol><symbol id="icon-Client-4" viewBox="0 0 57 32"><path fill="#afb1b8" style="fill:var(--color1, #afb1b8)" d="M19.247 11.873h-.001c-.767 0-1.389.553-1.389 1.235v.001c0 .682.622 1.235 1.389 1.235h.001c.767 0 1.389-.553 1.389-1.235v-.001c0-.682-.622-1.235-1.389-1.235zm10.255-.395c-.002-.947-.427-1.855-1.18-2.525s-1.775-1.047-2.841-1.049c-1.066.002-2.088.379-2.842 1.049s-1.179 1.578-1.181 2.525v5.223s8.043-.796 8.044-5.222v-.001zM15.04 18.416c.002.659.298 1.291.822 1.757s1.235.729 1.976.731c.741-.002 1.452-.265 1.976-.731s.82-1.097.822-1.756v-3.635s-5.596.555-5.596 3.634zm2.798.651a.796.796 0 0 1-.407-.11.682.682 0 0 1-.268-.288l-.002-.004a.577.577 0 0 1-.041-.38l-.001.004c.028-.126.098-.243.2-.333a.771.771 0 0 1 .518-.191.82.82 0 0 1 .286.051l-.006-.002c.134.049.248.133.329.24a.598.598 0 0 1-.089.823l-.001.001a.788.788 0 0 1-.518.192h-.001v-.003zm5.656-.359h-.54v.558h-.281v-1.365h.889v.228h-.608v.353h.54v.227zm1.351-.093c0 .134-.024.252-.071.353a.54.54 0 0 1-.498.318h-.011.001a.546.546 0 0 1-.508-.311l-.001-.003a.79.79 0 0 1-.074-.337v-.013.001-.067c0-.134.024-.253.072-.355a.537.537 0 0 1 .509-.318c.114 0 .214.028.303.083.089.054.157.133.205.235s.073.22.073.353v.061zm-.284-.062a.575.575 0 0 0-.077-.326.251.251 0 0 0-.209-.112h-.012.001-.011a.25.25 0 0 0-.207.11l-.001.001a.57.57 0 0 0-.078.323v.067c0 .139.026.247.077.324s.125.115.221.115h.011a.249.249 0 0 0 .206-.11l.001-.001a.578.578 0 0 0 .077-.324v-.067zm1.196.355V18.9a.142.142 0 0 0-.056-.113.696.696 0 0 0-.203-.09 1.465 1.465 0 0 1-.24-.098l.008.004c-.155-.084-.233-.197-.233-.339 0-.074.021-.14.062-.197s.102-.103.179-.136a.687.687 0 0 1 .523.004.396.396 0 0 1 .241.368h-.282c0-.062-.019-.111-.059-.145s-.095-.052-.166-.052a.258.258 0 0 0-.16.044.135.135 0 0 0-.057.111v.003c0 .044.022.082.067.112s.111.058.198.084c.16.048.276.108.35.179s.11.16.11.266c0 .118-.045.211-.134.278s-.209.1-.361.1a.688.688 0 0 1-.287-.058.463.463 0 0 1-.197-.157l-.001-.001a.405.405 0 0 1-.067-.224v-.009h.282c0 .15.09.226.27.226a.266.266 0 0 0 .157-.04.134.134 0 0 0 .056-.109v-.006zm1.502-.779h-.418v1.137h-.282v-1.137h-.412v-.228h1.112v.228zm.982.546h-.54v.366h.634v.226h-.915v-1.365h.913v.228h-.632v.325h.54v.22zm.764.091h-.224v.5H28.5v-1.365h.507c.161 0 .286.036.373.108s.131.173.131.305a.42.42 0 0 1-.061.234.403.403 0 0 1-.18.147l-.003.001.295.558v.013h-.302l-.256-.499zm-.224-.227h.227c.07 0 .125-.018.164-.053a.192.192 0 0 0 .058-.139v-.011c0-.065-.018-.115-.055-.152s-.092-.055-.168-.055h-.226v.41zm1.704.246v.481h-.281v-1.365h.532c.102 0 .193.019.27.056a.419.419 0 0 1 .243.395c0 .134-.046.239-.138.317s-.218.116-.38.116h-.246zm0-.228h.251a.25.25 0 0 0 .17-.052c.04-.035.059-.085.059-.15v-.01a.222.222 0 0 0-.059-.152.224.224 0 0 0-.163-.064h-.258v.429zm1.78.118h-.54v.366h.634v.226h-.915v-1.365h.913v.228h-.632v.325h.54v.22zm1.305-.546h-.418v1.137h-.281v-1.137h-.412v-.228h1.112v.228zm.982.546h-.54v.366h.634v.226h-.915v-1.365h.913v.228h-.632v.325h.54v.22zm.764.091h-.224v.5h-.281v-1.365h.507c.161 0 .285.036.373.108s.131.173.131.305a.42.42 0 0 1-.061.234.403.403 0 0 1-.18.147l-.003.001.295.558v.013h-.302l-.256-.499zm-.224-.227h.227c.07 0 .125-.018.164-.053s.058-.086.058-.149c0-.065-.019-.115-.055-.152s-.092-.055-.168-.055h-.226v.41zm1.653.369V18.9a.144.144 0 0 0-.056-.114.696.696 0 0 0-.203-.09 1.418 1.418 0 0 1-.239-.098l.008.004c-.155-.084-.233-.197-.233-.339 0-.074.02-.14.062-.197s.102-.103.179-.136a.687.687 0 0 1 .523.004.396.396 0 0 1 .241.368h-.281c0-.062-.02-.111-.059-.145s-.095-.052-.166-.052a.258.258 0 0 0-.16.044.135.135 0 0 0-.057.111v.004c0 .044.022.082.067.112s.111.058.198.084c.16.048.276.108.35.179s.11.16.11.266c0 .118-.045.211-.134.278s-.21.1-.361.1a.688.688 0 0 1-.287-.058.47.47 0 0 1-.197-.157l-.001-.001a.406.406 0 0 1-.068-.224v-.009h.282c0 .15.09.226.27.226a.26.26 0 0 0 .156-.04.134.134 0 0 0 .056-.109v-.005z"/></symbol><symbol id="icon-Client-5" viewBox="0 0 59 32"><path fill="#afb1b8" style="fill:var(--color1, #afb1b8)" d="M20.437 21.125c.085.096.13.216.128.34l.001.026a.485.485 0 0 1-.048.212l.001-.003a.555.555 0 0 1-.151.193l-.001.001a.907.907 0 0 1-.577.157h.003-1.01v-2.153h.989l.058-.002c.182 0 .351.054.493.147l-.003-.002c.064.049.115.111.148.181s.048.146.044.223a.471.471 0 0 1-.115.329.542.542 0 0 1-.301.168.586.586 0 0 1 .341.184zm-1.184-.325h.423a.43.43 0 0 0 .269-.072.26.26 0 0 0 .071-.094l.001-.002a.24.24 0 0 0 .02-.094l-.001-.021v.001l.001-.018a.245.245 0 0 0-.02-.098l.001.002a.284.284 0 0 0-.07-.096.433.433 0 0 0-.278-.073h.002-.416v.565zm.733.826a.27.27 0 0 0 .077-.097l.001-.002a.247.247 0 0 0 .023-.103l-.001-.018v.001-.016a.262.262 0 0 0-.024-.108l.001.002a.275.275 0 0 0-.079-.099h-.001a.464.464 0 0 0-.259-.079l-.03.001h.001-.443v.592h.449a.478.478 0 0 0 .284-.075zm2.473.425-.55-.842h-.207v.842h-.473v-2.153h.896l.064-.002c.211 0 .405.07.562.187l-.002-.002a.663.663 0 0 1 .215.479.644.644 0 0 1-.149.413l.001-.001a.746.746 0 0 1-.423.218h-.004l.586.861h-.515zm-.757-1.135h.387c.269 0 .403-.109.403-.326v-.017a.291.291 0 0 0-.023-.115l.001.002a.303.303 0 0 0-.077-.111.446.446 0 0 0-.267-.089l-.039.002h.002-.392l.005.655zm3.345.701h-.943l-.167.434h-.496l.866-2.129h.537l.863 2.129h-.496l-.163-.433zm-.126-.326-.345-.909-.345.909h.689zm3.365.76h-.47l-1.054-1.464v1.464h-.469v-2.154h.469l1.054 1.473v-1.473h.47v2.154zm2.682-.515a.982.982 0 0 1-.425.38 1.47 1.47 0 0 1-.623.136l-.04-.001h.002-.836v-2.153h.876c.225 0 .439.049.631.137l-.01-.004a.967.967 0 0 1 .425.376 1.164 1.164 0 0 1 0 1.13zm-.538-.052a.75.75 0 0 0 .208-.514.75.75 0 0 0-.208-.514.863.863 0 0 0-.591-.183h.003-.326v1.394h.326a.862.862 0 0 0 .59-.184l-.002.001zM25.341 7.919s6.066 2.097 5.937 5.131v5.132s-6.061-2.097-5.935-5.132l-.002-5.131zm11.341 9.061a8.793 8.793 0 0 1 3.854-1.3v-1.607c-1.594.563-2.946 1.583-3.854 2.907z"/><path fill="#afb1b8" style="fill:var(--color1, #afb1b8)" d="M35.994 17.464c.937-1.729 2.563-3.063 4.542-3.728V9.107s-8.638 2.987-8.456 7.307v7.306s.385-.134.991-.384c0-.233 0-.469.028-.706.178-2.006 1.22-3.864 2.895-5.168z"/><path fill="#afb1b8" style="fill:var(--color1, #afb1b8)" d="M35.172 20.178a6.919 6.919 0 0 1 .302-1.496c-1.043 1.125-1.675 2.522-1.806 3.993a5.81 5.81 0 0 0-.023.421 23.846 23.846 0 0 0 1.801-.87l-.139.068a6.936 6.936 0 0 1-.134-2.116zm.343.027a6.687 6.687 0 0 0 .115 1.959l-.008-.043c2.36-1.293 5.012-3.291 4.91-5.705v-.21c-1.686.173-3.264.848-4.49 1.921a6.563 6.563 0 0 0-.524 2.053l-.002.026z"/></symbol><symbol id="icon-Client-6" viewBox="0 0 59 32"><path fill="#afb1b8" style="fill:var(--color1, #afb1b8)" d="M29.713 15.098a1.017 1.017 0 0 1-.211-.695v.003-1.003c0-.307.07-.541.209-.701s.379-.239.718-.239c.319 0 .546.068.68.204a.833.833 0 0 1 .201.6v.236h-.57v-.239a1.148 1.148 0 0 0-.017-.234.225.225 0 0 0-.081-.138.324.324 0 0 0-.183-.055l-.025.001h.001l-.024-.001a.347.347 0 0 0-.194.059l.001-.001a.268.268 0 0 0-.094.151v.002a1.169 1.169 0 0 0-.023.229v.02-.001 1.217a.624.624 0 0 0 .073.342c.03.037.068.065.112.082l.002.001a.3.3 0 0 0 .149.019h-.001l.024.001a.305.305 0 0 0 .179-.057l-.001.001a.246.246 0 0 0 .085-.146v-.001a1.33 1.33 0 0 0 .018-.244v-.247h.571v.225l.002.06a.912.912 0 0 1-.201.573l.001-.002c-.131.149-.355.223-.683.223s-.577-.08-.717-.245zm2.376.011c-.144-.157-.216-.384-.216-.685v-1.055c0-.298.072-.523.216-.677s.385-.229.723-.229c.336 0 .575.077.72.229.144.153.217.378.217.677v1.055c0 .298-.073.527-.22.684s-.385.235-.717.235-.578-.08-.723-.234zm.989-.253a.59.59 0 0 0 .069-.312v-1.292l.001-.035a.564.564 0 0 0-.07-.274l.002.003a.273.273 0 0 0-.115-.083l-.002-.001a.31.31 0 0 0-.152-.017h.002c-.012-.002-.025-.002-.039-.002a.34.34 0 0 0-.115.021l.002-.001a.284.284 0 0 0-.117.083v.001a.571.571 0 0 0-.069.306v1.298a.572.572 0 0 0 .069.312.385.385 0 0 0 .267.105c.053 0 .103-.01.149-.029l-.003.001a.364.364 0 0 0 .12-.077v-.006zm1.358-2.361h.614l.462 1.946.473-1.946h.598l.061 2.809h-.442l-.047-1.952-.456 1.952h-.354l-.473-1.959-.044 1.959h-.447l.056-2.809zm2.896 0h.957c.551 0 .827.266.827.798 0 .509-.29.764-.871.763h-.326v1.248h-.591l.003-2.809zm.818 1.201a.444.444 0 0 0 .325-.089.451.451 0 0 0 .085-.317l.001-.031a.912.912 0 0 0-.03-.23l.001.006a.19.19 0 0 0-.044-.077.25.25 0 0 0-.073-.056l-.001-.001a.605.605 0 0 0-.233-.046l-.032.001h.002-.229v.84h.229zm1.818-1.201h.635l.651 2.809h-.551l-.129-.648h-.566l-.133.648h-.559l.651-2.809zm.543 1.836-.221-1.179-.221 1.179h.442zm1.269-1.836h.414l.792 1.602v-1.602h.49v2.809h-.393l-.797-1.673v1.673h-.507l.001-2.809zm2.844 1.738-.658-1.734h.554l.402 1.114.377-1.114h.543l-.65 1.734v1.071h-.567v-1.071zm-13.999 2.3v.147h-.482v1.142h-.202V16.68h-.485v-.147h1.169zm1.512 1.288h-.16a.078.078 0 0 1-.04-.012.073.073 0 0 1-.026-.029l-.139-.306h-.669l-.139.306a.08.08 0 0 1-.022.035.068.068 0 0 1-.04.012h-.16l.591-1.288h.206l.598 1.283zm-.979-.478h.558l-.237-.525a.845.845 0 0 1-.042-.115l-.002-.007-.022.069-.022.054-.234.523zm1.997.352a.736.736 0 0 0 .29-.038c.026-.009.052-.021.079-.032v-.29h-.238a.046.046 0 0 1-.03-.011.028.028 0 0 1-.009-.01.021.021 0 0 1-.003-.012v-.1h.458v.494a.852.852 0 0 1-.243.103l-.006.001a1.069 1.069 0 0 1-.148.027 1.656 1.656 0 0 1-.173.008h-.008a.912.912 0 0 1-.297-.05l.006.002a.726.726 0 0 1-.237-.135l.001.001a.63.63 0 0 1-.151-.2l-.002-.004a.638.638 0 0 1-.054-.259v-.017c0-.094.02-.184.055-.266l-.002.004a.59.59 0 0 1 .152-.204.726.726 0 0 1 .237-.134 1.12 1.12 0 0 1 .481-.037.85.85 0 0 1 .259.084.79.79 0 0 1 .103.067l-.057.08a.052.052 0 0 1-.019.017.06.06 0 0 1-.027.007.079.079 0 0 1-.037-.01.566.566 0 0 1-.061-.032l.003.002a.582.582 0 0 0-.075-.034l-.004-.001a.68.68 0 0 0-.104-.028l-.005-.001a.9.9 0 0 0-.142-.011h-.015a.704.704 0 0 0-.226.037l.005-.001a.497.497 0 0 0-.174.102.437.437 0 0 0-.108.157l-.001.003a.596.596 0 0 0 .001.434l-.001-.004a.503.503 0 0 0 .29.264.658.658 0 0 0 .234.025zm1.884-.021h.645v.147h-.842v-1.288h.202l-.005 1.142zm1.316.147h-.202v-1.288h.202v1.288zm.751-1.282a.12.12 0 0 1 .031.023l.864.971L38 17.51l.001-.024v.001-.96h.176v1.294h-.109a.1.1 0 0 1-.038-.008h.001a.128.128 0 0 1-.032-.024l-.863-.97v1.002h-.169v-1.288h.105c.011 0 .023.002.033.006zm2.559-.006v.142h-.716v.425h.58v.137h-.58v.44h.716v.142h-.924v-1.285h.924zM18.491 8.576l8.972 2.2v7.707l-8.972-2.198V8.576zm-.576-.657v8.739l10.122 2.482v-8.739L17.915 7.918z"/><path fill="#afb1b8" style="fill:var(--color1, #afb1b8)" d="m23.341 23.197-10.123-2.484v-8.739l10.123 2.483v8.739z"/><path fill="#afb1b8" style="fill:var(--color1, #afb1b8)" d="m18.083 8.477 8.855 2.172-3.766 3.252-8.857-2.173 3.767-3.251zm-.168-.558-4.698 4.056 10.123 2.483 4.697-4.056-10.122-2.483zm5.995 14.787 4.128-3.564-4.128-1.013v4.577z"/></symbol><symbol id="icon-facebook" viewBox="0 0 32 32"><path fill="#fff" style="fill:var(--color2, #fff)" d="M21.328 5.312h2.923V.224A36.478 36.478 0 0 0 20.144 0h-.157.008c-4.213 0-7.099 2.65-7.099 7.52V12H8.25v5.688h4.646V32h5.699V17.69h4.459l.709-5.688h-5.17V8.08c0-1.643.443-2.768 2.734-2.768z"/></symbol><symbol id="icon-instagram" viewBox="0 0 32 32"><path fill="#fff" style="fill:var(--color2, #fff)" d="M31.968 9.408c-.074-1.701-.349-2.869-.742-3.882a7.839 7.839 0 0 0-1.85-2.837l-.001-.001A7.906 7.906 0 0 0 26.597.861l-.054-.018C25.524.449 24.362.176 22.661.101 20.949.019 20.405 0 16.059 0c-4.344 0-4.888.019-6.595.094-1.699.074-2.869.349-3.88.742a7.847 7.847 0 0 0-2.839 1.85l-.001.001A7.9 7.9 0 0 0 .919 5.465l-.018.054C.506 6.538.232 7.7.157 9.401c-.082 1.712-.101 2.256-.101 6.602 0 4.344.019 4.888.094 6.595.075 1.701.35 2.869.744 3.882a7.915 7.915 0 0 0 1.849 2.837l.001.001c.8.813 1.77 1.443 2.832 1.843 1.019.395 2.182.67 3.882.744 1.707.075 2.251.094 6.595.094 4.346 0 4.89-.019 6.595-.094 1.701-.074 2.869-.349 3.882-.742a8.237 8.237 0 0 0 4.664-4.628l.019-.055c.394-1.019.669-2.182.744-3.882.075-1.707.093-2.251.093-6.595s-.006-4.888-.08-6.595zm-2.88 13.066c-.07 1.563-.333 2.406-.55 2.97a5.341 5.341 0 0 1-3.004 3.024l-.036.012c-.56.219-1.411.482-2.968.55-1.688.075-2.194.094-6.464.094-4.269 0-4.782-.019-6.464-.094-1.563-.069-2.406-.331-2.97-.55a4.953 4.953 0 0 1-1.836-1.192l-.001-.001a4.978 4.978 0 0 1-1.184-1.803L3.6 25.45c-.218-.563-.48-1.413-.549-2.97-.075-1.688-.094-2.195-.094-6.464 0-4.27.019-4.784.094-6.464.069-1.563.331-2.406.549-2.97a4.897 4.897 0 0 1 1.198-1.837l.002-.002a4.972 4.972 0 0 1 1.806-1.182l.034-.011c.56-.219 1.411-.48 2.968-.55 1.688-.074 2.195-.093 6.464-.093 4.275 0 4.782.019 6.464.093 1.563.069 2.406.331 2.97.55a4.91 4.91 0 0 1 1.837 1.194c.531.52.938 1.144 1.195 1.84.218.56.48 1.411.549 2.968.075 1.688.094 2.194.094 6.464 0 4.269-.019 4.768-.094 6.458z"/><path fill="#fff" style="fill:var(--color2, #fff)" d="M16.059 7.782a8.223 8.223 0 0 0-8.219 8.221v.002a8.222 8.222 0 1 0 16.444 0 8.222 8.222 0 0 0-8.222-8.222h-.002zm0 13.552a5.333 5.333 0 0 1 .001-10.666h.001a5.334 5.334 0 1 1 0 10.668zM26.525 7.458a1.92 1.92 0 0 1-3.84 0 1.92 1.92 0 0 1 3.84 0z"/></symbol><symbol id="icon-linkedin" viewBox="0 0 32 32"><path fill="#fff" style="fill:var(--color2, #fff)" d="M31.992 32H32V20.262c0-5.741-1.237-10.163-7.947-10.163-3.227 0-5.392 1.77-6.277 3.45h-.093v-2.914h-6.365v21.363h6.627V21.42c0-2.786.528-5.48 3.978-5.48 3.398 0 3.448 3.179 3.448 5.658V32h6.621zM.528 10.635h6.635V32H.528V10.635zM3.843 0A3.843 3.843 0 0 0 0 3.843c0 2.12 1.722 3.878 3.843 3.878 2.12 0 3.842-1.757 3.842-3.878S5.965.002 3.844 0z"/></symbol><symbol id="icon-twitter" viewBox="0 0 32 32"><path fill="#fff" style="fill:var(--color2, #fff)" d="M32 6.078c-1.1.493-2.376.857-3.713 1.028l-.068.007a6.556 6.556 0 0 0 2.873-3.579l.013-.046a12.88 12.88 0 0 1-4.076 1.573l-.084.014A6.558 6.558 0 0 0 15.6 9.557v.004c0 .52.043 1.021.152 1.496-5.454-.266-10.28-2.88-13.522-6.861a6.524 6.524 0 0 0-.902 3.313v.001a6.57 6.57 0 0 0 2.914 5.451 6.453 6.453 0 0 1-2.994-.823l.033.017v.072a6.592 6.592 0 0 0 5.213 6.44l.043.008a6.403 6.403 0 0 1-1.662.215h-.061.003c-.419 0-.843-.024-1.242-.112.85 2.598 3.261 4.509 6.13 4.57a13.093 13.093 0 0 1-8.122 2.8H1.57h.001-.062c-.531 0-1.055-.034-1.569-.099l.061.006c2.826 1.846 6.287 2.944 10.004 2.944h.063-.003c12.072 0 18.672-10 18.672-18.669 0-.288-.01-.57-.024-.848a13.203 13.203 0 0 0 3.258-3.355l.03-.047z"/></symbol></defs></svg>